<svg xmlns="http://www.w3.org/2000/svg" viewBox="0 0 1200 720" role="img" aria-label="个人博客截图预览">
  <rect width="1200" height="720" rx="24" fill="#f7f7f4"/>
  <rect x="60" y="60" width="1080" height="600" rx="18" fill="#ffffff" stroke="#d9ddd2" stroke-width="4"/>
  <rect x="100" y="104" width="1000" height="56" rx="10" fill="#f0f3ed"/>
  <rect x="128" y="122" width="160" height="20" rx="6" fill="#1f7a5c"/>
  <rect x="826" y="122" width="68" height="16" rx="6" fill="#9ea59a"/>
  <rect x="918" y="122" width="68" height="16" rx="6" fill="#9ea59a"/>
  <rect x="1010" y="122" width="68" height="16" rx="6" fill="#9ea59a"/>
  <rect x="100" y="206" width="620" height="42" rx="10" fill="#222421"/>
  <rect x="100" y="272" width="520" height="20" rx="8" fill="#7b8177"/>
  <rect x="100" y="360" width="620" height="132" rx="16" fill="#fbfcfa" stroke="#d9ddd2" stroke-width="3"/>
  <rect x="128" y="392" width="110" height="14" rx="6" fill="#a6ada2"/>
  <rect x="128" y="430" width="320" height="22" rx="8" fill="#2e322d"/>
  <rect x="128" y="470" width="430" height="16" rx="7" fill="#7b8177"/>
  <rect x="780" y="206" width="280" height="320" rx="16" fill="#fbfcfa" stroke="#d9ddd2" stroke-width="3"/>
  <rect x="816" y="244" width="126" height="20" rx="8" fill="#1f7a5c"/>
  <rect x="816" y="296" width="184" height="14" rx="6" fill="#7b8177"/>
  <rect x="816" y="332" width="150" height="14" rx="6" fill="#7b8177"/>
  <rect x="816" y="388" width="100" height="32" rx="16" fill="#eef2ea" stroke="#d9ddd2" stroke-width="2"/>
  <rect x="930" y="388" width="100" height="32" rx="16" fill="#eef2ea" stroke="#d9ddd2" stroke-width="2"/>
</svg>
